<?xml version="1.0" encoding="UTF-8"?> <svg xmlns="http://www.w3.org/2000/svg" width="49.17" height="76" viewBox="0 0 49.17 76"><g id="cross" transform="translate(-90.375)"><path id="Path_1335" data-name="Path 1335" d="M137.318,17.887h-15.66V2.227A2.227,2.227,0,0,0,119.432,0h-8.943a2.227,2.227,0,0,0-2.227,2.227v15.66H92.6a2.227,2.227,0,0,0-2.227,2.227v8.943A2.227,2.227,0,0,0,92.6,31.283h15.66v42.49A2.227,2.227,0,0,0,110.488,76h8.943a2.227,2.227,0,0,0,2.227-2.227V31.283h15.66a2.227,2.227,0,0,0,2.227-2.227V20.113A2.227,2.227,0,0,0,137.318,17.887Zm-2.227,8.943h-15.66a2.227,2.227,0,0,0-2.227,2.227v42.49h-4.49V29.057a2.227,2.227,0,0,0-2.227-2.227H94.828V22.34h15.66a2.227,2.227,0,0,0,2.227-2.227V4.453h4.49v15.66a2.227,2.227,0,0,0,2.227,2.227h15.66Z" fill="#cb372e"></path></g></svg> 