<?xml version="1.0" encoding="UTF-8"?> <svg xmlns="http://www.w3.org/2000/svg" width="86.857" height="76" viewBox="0 0 86.857 76"><g id="first-aid-kit-bag-with-cross-sign" transform="translate(0 -37.671)"><g id="Group_6054" data-name="Group 6054" transform="translate(0 37.671)"><path id="Path_1336" data-name="Path 1336" d="M0,104.312a9.37,9.37,0,0,0,9.359,9.359H77.5a9.37,9.37,0,0,0,9.359-9.359V61.631A9.37,9.37,0,0,0,77.5,52.272H66.266V45.158a7.5,7.5,0,0,0-7.487-7.487h-30.7a7.5,7.5,0,0,0-7.487,7.487v7.113H9.359A9.37,9.37,0,0,0,0,61.631Zm73.006-45.3H77.5a2.624,2.624,0,0,1,2.621,2.621v42.68a2.625,2.625,0,0,1-2.621,2.621H73.006V59.011ZM26.582,45.158a1.5,1.5,0,0,1,1.5-1.5h30.7a1.5,1.5,0,0,1,1.5,1.5v7.113H26.582ZM19.843,59.011H67.015v47.922H19.843Zm-13.1,2.62A2.625,2.625,0,0,1,9.36,59.01h4.493v47.922H9.36a2.624,2.624,0,0,1-2.621-2.621V61.631Z" transform="translate(0 -37.671)" fill="#cb372e"></path><path id="Path_1337" data-name="Path 1337" d="M219.1,245.513h-7.411v11.644H200.047v7.41h11.644v11.645H219.1V264.567h11.644v-7.41H219.1Z" transform="translate(-171.219 -215.562)" fill="#cb372e"></path></g></g></svg> 