<?xml version="1.0" encoding="UTF-8"?> <svg xmlns="http://www.w3.org/2000/svg" width="88.294" height="76" viewBox="0 0 88.294 76"><g id="help_1_" data-name="help (1)" transform="translate(0 -35.636)"><path id="Path_1334" data-name="Path 1334" d="M81.493,42.451a23.271,23.271,0,0,0-31.226-1.525c-1.059.869-1.293,1.127-6.12,5.961C39.363,42.1,39.093,41.8,38.032,40.93A23.269,23.269,0,0,0,6.8,75.359c10.428,10.428,35.268,35.285,35.48,35.487a2.6,2.6,0,0,0,3.765-.031c.319-.311,2.1-2.1,3.862-3.859,4.256-4.261,13.113-13.127,31.585-31.6a23.3,23.3,0,0,0,0-32.907ZM10.462,71.7A18.094,18.094,0,0,1,34.745,44.927c.828.679.893.763,5.743,5.62l-11.97,11.97a2.588,2.588,0,0,0,0,3.659L31.9,69.554a7.564,7.564,0,0,0,10.7,0L49.355,62.8a2.4,2.4,0,0,1,3.384,0L68.072,78.078a2.355,2.355,0,0,1,.106,3.272,2.288,2.288,0,0,1-3.282.033L53.563,70.1a2.587,2.587,0,1,0-3.651,3.667L61.241,85.047A2.292,2.292,0,1,1,58,88.283L46.663,77a2.587,2.587,0,1,0-3.651,3.667L54.341,91.947a2.294,2.294,0,0,1,0,3.241,2.546,2.546,0,0,1-3.16.216,7.4,7.4,0,0,0-4.887-2.327,7.457,7.457,0,0,0-6.9-6.9,7.457,7.457,0,0,0-6.9-6.9,7.465,7.465,0,0,0-12.725-4.734l-3.232,3.232L10.462,71.7ZM31.949,84.43a2.3,2.3,0,0,1,1.62,3.912l-3.234,3.234-3.24-3.241L30.328,85.1a2.279,2.279,0,0,1,1.62-.671Zm6.9,6.9a2.293,2.293,0,0,1,1.62,3.912l-3.236,3.236-3.24-3.242L37.228,92a2.278,2.278,0,0,1,1.621-.672Zm6.9,6.9a2.294,2.294,0,0,1,1.619,3.913l-3.236,3.237-3.242-3.24L44.128,98.9a2.277,2.277,0,0,1,1.621-.672ZM26.669,81.443l-3.233,3.233L20.2,81.434,23.428,78.2a2.291,2.291,0,1,1,3.241,3.241ZM77.833,71.7l-4.688,4.688a7.553,7.553,0,0,0-1.419-1.973L56.4,59.138a7.576,7.576,0,0,0-10.7,0l-6.757,6.757a2.4,2.4,0,0,1-3.384,0l-1.549-1.549C53.821,44.533,52.572,45.729,53.554,44.923A18.094,18.094,0,0,1,77.833,71.7Z" transform="translate(0)" fill="#cb372e"></path></g></svg> 